<svg version="1.1" id="Layer_1" xmlns="http://www.w3.org/2000/svg" xmlns:xlink="http://www.w3.org/1999/xlink" x="0px" y="0px"
	 width="100%" viewBox="0 0 3464 3464" enable-background="new 0 0 3464 3464" xml:space="preserve">
<path fill="#000000" opacity="1.000000" stroke="none" 
	d="
M1586.000000,3466.000000 
	C1057.333496,3466.000000 529.666992,3466.000000 2.000354,3466.000000 
	C2.000236,2311.333740 2.000236,1156.667725 2.000118,2.001129 
	C1156.665894,2.000752 2311.331787,2.000752 3465.998047,2.000376 
	C3465.998779,1156.665405 3465.998779,2311.330811 3465.999512,3465.998047 
	C2839.666748,3466.000000 2213.333252,3466.000000 1586.000000,3466.000000 
M1744.780396,2681.480713 
	C1781.448364,2679.271973 1817.608887,2673.484375 1853.616699,2666.422607 
	C1910.719482,2655.223389 1966.163574,2638.680908 2019.659668,2615.723633 
	C2022.493164,2614.507812 2025.164917,2612.914551 2028.979492,2610.945801 
	C2025.225952,2608.131104 2022.958984,2606.249756 2020.519775,2604.627686 
	C1903.671997,2526.943115 1786.792480,2449.306152 1670.003540,2371.533447 
	C1664.758301,2368.040527 1659.545410,2366.327637 1653.258423,2366.368164 
	C1610.075562,2366.645508 1567.477417,2361.403320 1525.341919,2352.177490 
	C1477.333252,2341.665283 1430.638672,2327.170410 1386.409546,2305.453857 
	C1302.445557,2264.226807 1232.108521,2205.642578 1172.651367,2134.123535 
	C1097.360596,2043.558716 1051.312134,1939.623657 1035.650269,1822.641113 
	C1023.223633,1729.823364 1029.830933,1638.441895 1057.500488,1548.796509 
	C1080.059082,1475.710205 1115.140381,1409.057373 1162.250488,1348.936523 
	C1208.423340,1290.011597 1262.017212,1239.052368 1325.823608,1199.118896 
	C1391.330444,1158.121216 1462.021362,1130.831909 1537.774048,1116.374634 
	C1588.734985,1106.648926 1640.174438,1103.458130 1692.012329,1105.240723 
	C1764.006592,1107.716675 1833.504639,1122.058350 1900.364136,1148.730591 
	C1973.033813,1177.720947 2037.167969,1220.209961 2094.543457,1273.162598 
	C2099.156738,1277.420288 2103.880127,1281.558228 2108.380859,1285.598022 
	C2118.134277,1279.516724 2329.095703,1072.696289 2332.766602,1065.707764 
	C2331.805420,1064.543945 2330.867188,1063.171143 2329.701416,1062.030518 
	C2286.714355,1019.970947 2240.624512,981.579956 2190.785645,947.973267 
	C2129.525391,906.665039 2064.491211,872.221741 1995.434326,845.721619 
	C1926.661499,819.330383 1855.615234,802.220581 1782.411255,793.574463 
	C1681.321289,781.634766 1580.804932,784.404846 1480.858032,803.799744 
	C1410.855225,817.383972 1343.783203,839.994141 1278.888794,869.547791 
	C1228.412476,892.535339 1179.709229,918.670654 1133.715820,949.569885 
	C1088.284058,980.091797 1045.745728,1014.310974 1006.268738,1052.393921 
	C954.482483,1102.351318 908.252808,1156.803467 868.611389,1216.884888 
	C835.854126,1266.532349 807.356018,1318.438110 784.430786,1373.347778 
	C758.283936,1435.973999 738.789429,1500.550293 726.824829,1567.430908 
	C719.533325,1608.189941 714.531677,1649.192627 712.760986,1690.503540 
	C710.431152,1744.859741 712.325745,1799.088135 719.406982,1853.142334 
	C726.962646,1910.817871 739.494019,1967.302734 757.887756,2022.451660 
	C786.416321,2107.987061 825.835632,2188.268555 876.257874,2262.990967 
	C933.549500,2347.893311 1002.017456,2422.338135 1083.807495,2484.510254 
	C1149.986084,2534.815430 1220.857300,2576.763916 1297.296875,2609.293457 
	C1365.012695,2638.110840 1434.821045,2659.924561 1507.695923,2671.380371 
	C1548.882568,2677.854980 1590.094849,2683.657471 1631.951538,2682.979492 
	C1668.934814,2682.380127 1705.922852,2682.064453 1744.780396,2681.480713 
M2618.548584,1973.774902 
	C2715.068359,1780.420898 2811.588135,1587.066895 2908.874023,1392.178467 
	C2903.696777,1391.829712 2900.502441,1391.428589 2897.308105,1391.426880 
	C2828.653564,1391.389771 2759.998291,1391.531860 2691.345215,1391.212891 
	C2683.447998,1391.176147 2679.549072,1393.876587 2676.109375,1400.807617 
	C2644.108887,1465.284302 2611.710693,1529.563232 2579.491211,1593.931274 
	C2520.125732,1712.530396 2460.809082,1831.153809 2401.432129,1949.747192 
	C2399.856445,1952.894165 2397.822998,1955.811890 2394.973877,1960.546631 
	C2392.389160,1956.109863 2390.638672,1953.443115 2389.214844,1950.612061 
	C2352.832520,1878.271362 2316.477539,1805.917114 2280.132324,1733.557495 
	C2246.181152,1665.963501 2212.255127,1598.356689 2178.279785,1530.774658 
	C2176.873779,1527.977783 2175.078369,1525.376465 2172.668457,1521.355835 
	C2170.234619,1525.717651 2168.541992,1528.490845 2167.092773,1531.385986 
	C2132.341309,1600.810059 2097.734863,1670.307251 2062.711182,1739.593506 
	C2059.000488,1746.934448 2058.852783,1752.582275 2062.593262,1759.917114 
	C2091.806396,1817.204590 2120.656982,1874.676880 2149.530762,1932.136841 
	C2224.781982,2081.889404 2299.957031,2231.680176 2375.255127,2381.409180 
	C2383.561523,2397.926514 2379.138916,2395.254395 2398.232422,2395.917236 
	C2405.231445,2396.159912 2408.900146,2393.799561 2412.059326,2387.454346 
	C2480.525146,2249.935791 2549.224365,2112.533447 2618.548584,1973.774902 
M1685.174561,1805.580444 
	C1683.572510,1802.285278 1682.006836,1798.971802 1680.362793,1795.697632 
	C1634.766602,1704.889648 1589.159912,1614.086792 1543.560913,1523.280151 
	C1523.227417,1482.787354 1502.701904,1442.388550 1482.763794,1401.701904 
	C1479.035522,1394.093872 1474.857056,1390.207153 1466.155029,1391.267822 
	C1460.572876,1391.947998 1454.839966,1391.392944 1449.174683,1391.392944 
	C1386.855957,1391.393066 1324.537109,1391.360962 1262.218506,1391.475098 
	C1258.527832,1391.481934 1254.275391,1389.905029 1250.450928,1394.007568 
	C1389.918701,1673.052856 1529.378784,1952.082886 1669.658325,2232.752686 
	C1672.134277,2228.689209 1673.800049,2226.354980 1675.065308,2223.820557 
	C1710.324219,2153.195312 1745.473022,2082.514893 1780.890625,2011.969360 
	C1783.926514,2005.922607 1783.716187,2001.135376 1780.724243,1995.225220 
	C1748.977417,1932.514404 1717.465332,1869.684814 1685.174561,1805.580444 
z"/>
<path fill="#FEFEFE" opacity="1.000000" stroke="none" 
	d="
M1743.844482,2681.552246 
	C1705.922852,2682.064453 1668.934814,2682.380127 1631.951538,2682.979492 
	C1590.094849,2683.657471 1548.882568,2677.854980 1507.695923,2671.380371 
	C1434.821045,2659.924561 1365.012695,2638.110840 1297.296875,2609.293457 
	C1220.857300,2576.763916 1149.986084,2534.815430 1083.807495,2484.510254 
	C1002.017456,2422.338135 933.549500,2347.893311 876.257874,2262.990967 
	C825.835632,2188.268555 786.416321,2107.987061 757.887756,2022.451660 
	C739.494019,1967.302734 726.962646,1910.817871 719.406982,1853.142334 
	C712.325745,1799.088135 710.431152,1744.859741 712.760986,1690.503540 
	C714.531677,1649.192627 719.533325,1608.189941 726.824829,1567.430908 
	C738.789429,1500.550293 758.283936,1435.973999 784.430786,1373.347778 
	C807.356018,1318.438110 835.854126,1266.532349 868.611389,1216.884888 
	C908.252808,1156.803467 954.482483,1102.351318 1006.268738,1052.393921 
	C1045.745728,1014.310974 1088.284058,980.091797 1133.715820,949.569885 
	C1179.709229,918.670654 1228.412476,892.535339 1278.888794,869.547791 
	C1343.783203,839.994141 1410.855225,817.383972 1480.858032,803.799744 
	C1580.804932,784.404846 1681.321289,781.634766 1782.411255,793.574463 
	C1855.615234,802.220581 1926.661499,819.330383 1995.434326,845.721619 
	C2064.491211,872.221741 2129.525391,906.665039 2190.785645,947.973267 
	C2240.624512,981.579956 2286.714355,1019.970947 2329.701416,1062.030518 
	C2330.867188,1063.171143 2331.805420,1064.543945 2332.766602,1065.707764 
	C2329.095703,1072.696289 2118.134277,1279.516724 2108.380859,1285.598022 
	C2103.880127,1281.558228 2099.156738,1277.420288 2094.543457,1273.162598 
	C2037.167969,1220.209961 1973.033813,1177.720947 1900.364136,1148.730591 
	C1833.504639,1122.058350 1764.006592,1107.716675 1692.012329,1105.240723 
	C1640.174438,1103.458130 1588.734985,1106.648926 1537.774048,1116.374634 
	C1462.021362,1130.831909 1391.330444,1158.121216 1325.823608,1199.118896 
	C1262.017212,1239.052368 1208.423340,1290.011597 1162.250488,1348.936523 
	C1115.140381,1409.057373 1080.059082,1475.710205 1057.500488,1548.796509 
	C1029.830933,1638.441895 1023.223633,1729.823364 1035.650269,1822.641113 
	C1051.312134,1939.623657 1097.360596,2043.558716 1172.651367,2134.123535 
	C1232.108521,2205.642578 1302.445557,2264.226807 1386.409546,2305.453857 
	C1430.638672,2327.170410 1477.333252,2341.665283 1525.341919,2352.177490 
	C1567.477417,2361.403320 1610.075562,2366.645508 1653.258423,2366.368164 
	C1659.545410,2366.327637 1664.758301,2368.040527 1670.003540,2371.533447 
	C1786.792480,2449.306152 1903.671997,2526.943115 2020.519775,2604.627686 
	C2022.958984,2606.249756 2025.225952,2608.131104 2028.979492,2610.945801 
	C2025.164917,2612.914551 2022.493164,2614.507812 2019.659668,2615.723633 
	C1966.163574,2638.680908 1910.719482,2655.223389 1853.616699,2666.422607 
	C1817.608887,2673.484375 1781.448364,2679.271973 1743.844482,2681.552246 
z"/>
<path fill="#FDFDFD" opacity="1.000000" stroke="none" 
	d="
M2618.213379,1974.441650 
	C2549.224365,2112.533447 2480.525146,2249.935791 2412.059326,2387.454346 
	C2408.900146,2393.799561 2405.231445,2396.159912 2398.232422,2395.917236 
	C2379.138916,2395.254395 2383.561523,2397.926514 2375.255127,2381.409180 
	C2299.957031,2231.680176 2224.781982,2081.889404 2149.530762,1932.136841 
	C2120.656982,1874.676880 2091.806396,1817.204590 2062.593262,1759.917114 
	C2058.852783,1752.582275 2059.000488,1746.934448 2062.711182,1739.593506 
	C2097.734863,1670.307251 2132.341309,1600.810059 2167.092773,1531.385986 
	C2168.541992,1528.490845 2170.234619,1525.717651 2172.668457,1521.355835 
	C2175.078369,1525.376465 2176.873779,1527.977783 2178.279785,1530.774658 
	C2212.255127,1598.356689 2246.181152,1665.963501 2280.132324,1733.557495 
	C2316.477539,1805.917114 2352.832520,1878.271362 2389.214844,1950.612061 
	C2390.638672,1953.443115 2392.389160,1956.109863 2394.973877,1960.546631 
	C2397.822998,1955.811890 2399.856445,1952.894165 2401.432129,1949.747192 
	C2460.809082,1831.153809 2520.125732,1712.530396 2579.491211,1593.931274 
	C2611.710693,1529.563232 2644.108887,1465.284302 2676.109375,1400.807617 
	C2679.549072,1393.876587 2683.447998,1391.176147 2691.345215,1391.212891 
	C2759.998291,1391.531860 2828.653564,1391.389771 2897.308105,1391.426880 
	C2900.502441,1391.428589 2903.696777,1391.829712 2908.874023,1392.178467 
	C2811.588135,1587.066895 2715.068359,1780.420898 2618.213379,1974.441650 
z"/>
<path fill="#FDFDFD" opacity="1.000000" stroke="none" 
	d="
M1685.531616,1806.234131 
	C1717.465332,1869.684814 1748.977417,1932.514404 1780.724243,1995.225220 
	C1783.716187,2001.135376 1783.926514,2005.922607 1780.890625,2011.969360 
	C1745.473022,2082.514893 1710.324219,2153.195312 1675.065308,2223.820557 
	C1673.800049,2226.354980 1672.134277,2228.689209 1669.658325,2232.752686 
	C1529.378784,1952.082886 1389.918701,1673.052856 1250.450928,1394.007568 
	C1254.275391,1389.905029 1258.527832,1391.481934 1262.218506,1391.475098 
	C1324.537109,1391.360962 1386.855957,1391.393066 1449.174683,1391.392944 
	C1454.839966,1391.392944 1460.572876,1391.947998 1466.155029,1391.267822 
	C1474.857056,1390.207153 1479.035522,1394.093872 1482.763794,1401.701904 
	C1502.701904,1442.388550 1523.227417,1482.787354 1543.560913,1523.280151 
	C1589.159912,1614.086792 1634.766602,1704.889648 1680.362793,1795.697632 
	C1682.006836,1798.971802 1683.572510,1802.285278 1685.531616,1806.234131 
z"/>
</svg>